<svg width="205" height="45" viewBox="0 0 205 45" fill="none" xmlns="http://www.w3.org/2000/svg">
<g clip-path="url(#clip0_201_1235)">
<path d="M21.2841 9.93923C18.3144 9.93923 16.3846 11.0708 15.3073 12.3627V0H10.4922V31.0153H14.8295L15.0263 28.3183C16.1504 29.8554 18.2395 31.1096 21.2841 31.1096C26.7456 31.1096 30.4741 26.6303 30.4741 20.5291C30.4741 14.4279 26.7456 9.94866 21.2841 9.94866V9.93923ZM20.2442 26.8189C17.8367 26.8189 16.3565 25.527 15.3073 23.7919V17.2475C16.3472 15.5124 17.8367 14.2205 20.2442 14.2205C23.3732 14.2205 25.6215 16.6817 25.6215 20.5197C25.6215 24.3577 23.3732 26.8189 20.2442 26.8189Z" fill="white"/>
<path d="M64.939 26.734C63.056 26.734 61.7726 25.527 61.7726 23.4618V14.4561H67.8712V10.3352H61.7726V3.51733H56.9574V10.3447H53.1447V14.4656H56.9574V23.509C56.9574 28.4408 59.8896 31.1001 64.4987 31.1001C66.5034 31.1001 67.9929 30.5343 68.9953 29.8931L67.7119 26.0928C67.1123 26.4605 66.2318 26.7434 64.939 26.7434V26.734Z" fill="white"/>
<path d="M85.1645 12.721C84.0404 11.1839 81.9981 9.92969 78.9442 9.92969C73.4451 9.92969 69.7167 14.3712 69.7167 20.5102C69.7167 26.6491 73.4451 31.0906 78.9442 31.0906C81.9981 31.0906 84.0404 29.8364 85.1645 28.2993L85.4081 31.0906H89.7455V10.3446H85.4081L85.1645 12.7304V12.721ZM84.9209 23.7918C83.8343 25.5269 82.3916 26.8188 79.984 26.8188C76.8551 26.8188 74.6068 24.3576 74.6068 20.5196C74.6068 16.6816 76.8551 14.2203 79.984 14.2203C82.3916 14.2203 83.8343 15.5123 84.9209 17.2474V23.7918Z" fill="white"/>
<path d="M102.776 18.5016C99.7692 17.7755 98.8043 17.37 98.8043 15.9932C98.8043 14.6164 100.003 13.9752 102.018 13.9752C104.144 13.9752 105.746 14.7861 106.954 15.748L108.884 12.1552C107.32 10.8255 104.79 9.92969 102.027 9.92969C97.0525 9.92969 93.9985 12.3532 93.9985 16.3138C93.9985 19.5011 96.0033 21.1231 100.622 22.2076C103.554 22.8959 104.509 23.4995 104.509 24.8762C104.509 26.3662 103.142 27.0546 100.978 27.0546C98.6544 27.0546 96.6871 26.2059 95.2445 24.9988L93.2397 28.6388C95.0009 30.1759 97.8956 31.1001 100.94 31.1001C106.158 31.1001 109.409 28.5162 109.409 24.5934C109.409 21.5192 107.282 19.586 102.786 18.4921L102.776 18.5016Z" fill="white"/>
<path d="M122.355 26.734C120.473 26.734 119.189 25.527 119.189 23.4618V14.4561H125.288V10.3352H119.189V3.51733H114.374V10.3447H110.561V14.4656H114.374V23.509C114.374 28.4408 117.306 31.1001 121.915 31.1001C123.92 31.1001 125.409 30.5343 126.412 29.8931L125.128 26.0928C124.529 26.4605 123.648 26.7434 122.355 26.7434V26.734Z" fill="white"/>
<path d="M141.654 23.6693C140.614 25.1593 139.283 26.4983 136.998 26.4983C134.712 26.4983 133.269 24.6783 133.269 22.0568V10.3447H128.454V22.302C128.454 27.6299 131.021 31.1096 135.714 31.1096C138.806 31.1096 140.773 29.8554 141.897 28.3655L142.141 31.1096H146.478V10.3447H141.663V23.6693H141.654Z" fill="white"/>
<path d="M165.167 12.3627C164.043 11.0708 162.16 9.93923 159.19 9.93923C153.691 9.93923 149.963 14.3808 149.963 20.5197C149.963 26.6586 153.691 31.1002 159.19 31.1002C162.244 31.1002 164.287 29.846 165.411 28.3089L165.654 31.119H169.992V0H165.177V12.3627H165.167ZM165.167 23.7919C164.081 25.527 162.638 26.8189 160.23 26.8189C157.101 26.8189 154.853 24.3577 154.853 20.5197C154.853 16.6817 157.101 14.2205 160.23 14.2205C162.638 14.2205 164.081 15.5124 165.167 17.2475V23.7919Z" fill="white"/>
<path d="M180.1 10.3447H175.285V31.1096H180.1V10.3447Z" fill="white"/>
<path d="M177.692 0.848633C176.006 0.848633 174.723 2.10282 174.723 3.83795C174.723 5.57307 176.006 6.82726 177.692 6.82726C179.378 6.82726 180.699 5.57307 180.699 3.83795C180.699 2.10282 179.416 0.848633 177.692 0.848633Z" fill="white"/>
<path d="M194.105 9.93921C188.044 9.93921 183.594 14.4185 183.594 20.5574C183.594 26.6963 188.044 31.1001 194.105 31.1001C200.166 31.1001 204.616 26.6586 204.616 20.5574C204.616 14.4562 200.166 9.93921 194.105 9.93921ZM194.105 26.8189C190.854 26.8189 188.484 24.1974 188.484 20.5574C188.484 16.9174 190.854 14.2204 194.105 14.2204C197.356 14.2204 199.763 16.8891 199.763 20.5574C199.763 24.2257 197.356 26.8189 194.105 26.8189Z" fill="white"/>
<path d="M42.6057 9.59033C37.0036 9.59033 32.5257 13.7773 32.5257 20.2651C32.5257 26.7529 36.5165 31.0153 42.5214 31.0153C47.4396 31.0153 50.5029 28.2052 51.9549 24.8481L48.2452 23.3487C47.1585 25.7251 45.0976 27.2244 42.5214 27.2244C39.7391 27.2622 37.6875 25.6025 37.0411 22.9149L52.3203 19.9539C52.1985 13.7112 48.1328 9.59976 42.6057 9.59976V9.59033ZM36.6382 19.7936C36.76 14.8523 39.9826 13.4661 42.3621 13.3529C45.1069 13.3152 47.196 14.9749 47.8424 17.7001L36.6382 19.7936Z" fill="white"/>
<path d="M0.974257 25.414C-0.318527 26.7342 -0.318527 28.8088 0.974257 30.129C2.30451 31.4492 4.328 31.4492 5.62079 30.129C6.95104 28.8088 6.95104 26.7342 5.62079 25.414C4.328 24.0938 2.30451 24.0938 0.974257 25.414Z" fill="white"/>
<path d="M93.577 44.8963L95.7503 39.7192H96.1906L98.364 44.8963H97.7457L97.2117 43.6233H94.7199L94.1859 44.8963H93.5676H93.577ZM94.9447 43.0858H96.9963L95.9752 40.6245L94.9541 43.0858H94.9447Z" fill="white"/>
<path d="M104.912 44.8963V40.2567H103.507V39.7192H106.889V40.2567H105.484V44.8963H104.912Z" fill="white"/>
<path d="M109.119 44.8963V39.7192H112.023V40.2567H109.69V41.8976H111.882V42.4351H109.69V44.3682H112.069V44.9057H109.109L109.119 44.8963Z" fill="white"/>
<path d="M114.496 44.8963V39.7192H116.248C116.678 39.7192 117.034 39.8701 117.344 40.1624C117.643 40.4548 117.793 40.8225 117.793 41.2658C117.793 41.9447 117.4 42.5011 116.81 42.7368L118.046 44.8963H117.39L116.229 42.85H115.067V44.8963H114.496ZM115.067 42.3125H116.191C116.482 42.3125 116.725 42.2182 116.922 42.0202C117.119 41.8221 117.212 41.5769 117.212 41.2658C117.212 40.6905 116.791 40.2567 116.219 40.2567H115.058V42.3125H115.067Z" fill="white"/>
<path d="M120.407 43.5384C120.669 44.1607 121.091 44.4719 121.7 44.4719C122.131 44.4719 122.449 44.3211 122.571 44.1042C122.693 43.8873 122.73 43.7364 122.73 43.5572C122.73 43.2743 122.646 43.0574 122.468 42.9066C122.299 42.7557 121.999 42.5859 121.578 42.3973C121.11 42.1899 120.763 41.9824 120.557 41.7844C120.341 41.5864 120.229 41.2846 120.229 40.9074C120.229 40.5302 120.36 40.2284 120.632 39.9833C120.894 39.7381 121.241 39.6155 121.644 39.6155C122.271 39.6155 122.74 39.889 123.03 40.4359L122.533 40.6905C122.346 40.3227 122.037 40.153 121.634 40.153C121.166 40.153 120.81 40.4642 120.81 40.8885C120.81 41.1526 120.875 41.3317 121.11 41.5109C121.231 41.5958 121.334 41.6618 121.409 41.6995L121.85 41.8975C122.374 42.1239 122.74 42.3596 122.964 42.5859C123.189 42.8123 123.302 43.1234 123.302 43.5289C123.302 43.9344 123.161 44.3022 122.871 44.5757C122.59 44.8491 122.196 44.9812 121.681 44.9812C120.866 44.9812 120.201 44.5662 119.901 43.7458L120.398 43.5195L120.407 43.5384Z" fill="white"/>
<path d="M125.672 44.8963V39.7192H126.243V41.8787H129.1V39.7192H129.672V44.8963H129.1V42.4162H126.243V44.8963H125.672Z" fill="white"/>
<path d="M132.033 42.3126C132.033 41.5487 132.295 40.9075 132.81 40.3983C133.335 39.889 133.972 39.625 134.712 39.625C135.452 39.625 136.089 39.889 136.604 40.3983C137.129 40.9075 137.382 41.5487 137.382 42.3126C137.382 43.0764 137.119 43.7271 136.604 44.2363C136.089 44.7455 135.452 45.0001 134.712 45.0001C133.972 45.0001 133.335 44.7455 132.81 44.2363C132.295 43.7271 132.033 43.0764 132.033 42.3126ZM132.604 42.3126C132.604 42.9255 132.801 43.4442 133.204 43.8591C133.606 44.2646 134.112 44.472 134.712 44.472C135.311 44.472 135.817 44.274 136.22 43.8591C136.623 43.4536 136.82 42.9349 136.82 42.3126C136.82 41.6902 136.623 41.181 136.22 40.7755C135.817 40.37 135.321 40.1625 134.712 40.1625C134.103 40.1625 133.606 40.37 133.204 40.7755C132.801 41.181 132.604 41.6996 132.604 42.3126Z" fill="white"/>
<path d="M139.705 39.7288H140.276V43.0293C140.276 43.9534 140.792 44.4532 141.625 44.4532C142.459 44.4532 142.974 43.9534 142.974 43.0293V39.7288H143.546V43.0953C143.546 43.7082 143.368 44.1703 143.012 44.5098C142.656 44.8398 142.197 45.0001 141.616 45.0001C141.035 45.0001 140.576 44.8398 140.22 44.5098C139.864 44.1797 139.686 43.7082 139.686 43.0953V39.7288H139.705Z" fill="white"/>
<path d="M146.281 43.5384C146.544 44.1607 146.965 44.4719 147.574 44.4719C148.005 44.4719 148.324 44.3211 148.445 44.1042C148.567 43.8873 148.605 43.7364 148.605 43.5572C148.605 43.2743 148.52 43.0574 148.342 42.9066C148.174 42.7557 147.874 42.5859 147.452 42.3973C146.984 42.1899 146.637 41.9824 146.431 41.7844C146.216 41.5864 146.103 41.2846 146.103 40.9074C146.103 40.5302 146.234 40.2284 146.506 39.9833C146.768 39.7381 147.115 39.6155 147.518 39.6155C148.146 39.6155 148.614 39.889 148.904 40.4359L148.408 40.6905C148.22 40.3227 147.911 40.153 147.509 40.153C147.04 40.153 146.684 40.4642 146.684 40.8885C146.684 41.1526 146.75 41.3317 146.984 41.5109C147.106 41.5958 147.209 41.6618 147.284 41.6995L147.724 41.8975C148.249 42.1239 148.614 42.3596 148.839 42.5859C149.064 42.8123 149.176 43.1234 149.176 43.5289C149.176 43.9344 149.036 44.3022 148.745 44.5757C148.464 44.8491 148.071 44.9812 147.555 44.9812C146.74 44.9812 146.075 44.5662 145.775 43.7458L146.272 43.5195L146.281 43.5384Z" fill="white"/>
<path d="M151.546 44.8963V39.7192H154.45V40.2567H152.118V41.8976H154.31V42.4351H152.118V44.3682H154.497V44.9057H151.537L151.546 44.8963Z" fill="white"/>
<path d="M165.373 40.5018L164.98 40.8602C164.577 40.3887 164.062 40.1624 163.406 40.1624C162.797 40.1624 162.301 40.3698 161.898 40.7753C161.495 41.1808 161.298 41.6994 161.298 42.3124C161.298 42.9254 161.495 43.444 161.898 43.8589C162.301 44.2644 162.797 44.4719 163.406 44.4719C164.071 44.4719 164.605 44.2267 164.999 43.7458L165.392 44.1041C164.877 44.7076 164.212 45.0094 163.406 45.0094C162.657 45.0094 162.029 44.7548 161.504 44.2456C160.989 43.7363 160.727 43.0857 160.727 42.3218C160.727 41.558 160.989 40.9168 161.504 40.4075C162.029 39.8983 162.666 39.6343 163.406 39.6343C164.193 39.6343 164.849 39.9266 165.364 40.5113L165.373 40.5018Z" fill="white"/>
<path d="M167.312 42.3126C167.312 41.5487 167.575 40.9075 168.09 40.3983C168.615 39.889 169.252 39.625 169.992 39.625C170.732 39.625 171.369 39.889 171.884 40.3983C172.409 40.9075 172.662 41.5487 172.662 42.3126C172.662 43.0764 172.399 43.7271 171.884 44.2363C171.369 44.7455 170.732 45.0001 169.992 45.0001C169.252 45.0001 168.615 44.7455 168.09 44.2363C167.575 43.7271 167.312 43.0764 167.312 42.3126ZM167.884 42.3126C167.884 42.9255 168.081 43.4442 168.484 43.8591C168.886 44.2646 169.392 44.472 169.992 44.472C170.591 44.472 171.097 44.274 171.5 43.8591C171.903 43.4536 172.1 42.9349 172.1 42.3126C172.1 41.6902 171.903 41.181 171.5 40.7755C171.097 40.37 170.601 40.1625 169.992 40.1625C169.383 40.1625 168.886 40.37 168.484 40.7755C168.081 41.181 167.884 41.6996 167.884 42.3126Z" fill="white"/>
<path d="M175.022 44.8963V39.7192H175.556L177.514 43.0009L179.472 39.7192H179.997V44.8963H179.425V40.8603L177.505 44.0193L175.584 40.8603V44.8869H175.013L175.022 44.8963Z" fill="white"/>
<path d="M182.685 44.8963V39.7192H184.334C184.765 39.7192 185.149 39.8701 185.449 40.1719C185.749 40.4642 185.908 40.8414 185.908 41.2941C185.908 41.7467 185.749 42.1145 185.449 42.4257C185.149 42.718 184.774 42.8689 184.334 42.8689H183.266V44.8963H182.695H182.685ZM183.257 42.3314H184.306C184.597 42.3314 184.84 42.2371 185.027 42.039C185.224 41.841 185.318 41.5958 185.318 41.2941C185.318 40.9923 185.224 40.7565 185.027 40.5491C184.84 40.351 184.597 40.2567 184.306 40.2567H183.257V42.3314Z" fill="white"/>
<path d="M187.369 44.8963L189.543 39.7192H189.983L192.156 44.8963H191.538L191.004 43.6233H188.512L187.978 44.8963H187.36H187.369ZM188.737 43.0858H190.789L189.768 40.6245L188.747 43.0858H188.737Z" fill="white"/>
<path d="M194.433 44.8963V39.7192H194.939L198.04 43.859V39.7192H198.611V44.8963H198.143L195.004 40.7094V44.8963H194.433Z" fill="white"/>
<path d="M202.63 44.8963V42.7746L200.822 39.7192H201.459L202.93 42.1993L204.382 39.7192H205L203.211 42.7746V44.8963H202.639H202.63Z" fill="white"/>
</g>
<defs>
<clipPath id="clip0_201_1235">
<rect width="205" height="45" fill="white"/>
</clipPath>
</defs>
</svg>
