<svg width="50" height="50" viewBox="0 0 60 70" fill="none" xmlns="http://www.w3.org/2000/svg">
<rect opacity="0.15" width="60" height="60" rx="6" fill="#1EE2CF"/>
<path d="M34.1429 31.1622L31.7978 33.5152C30.8469 34.4695 29.1736 34.49 28.2021 33.5152L25.857 31.1622L17.4342 39.6123C17.7477 39.7572 18.0934 39.8438 18.4609 39.8438H41.539C41.9065 39.8438 42.2521 39.7573 42.5655 39.6123L34.1429 31.1622Z" fill="#1EE2CF"/>
<path d="M41.539 20.1562H18.4609C18.0934 20.1562 17.7477 20.2428 17.4343 20.3877L26.4346 29.4179C26.4352 29.4185 26.4359 29.4186 26.4365 29.4192C26.4371 29.4198 26.4373 29.4206 26.4373 29.4206L29.3637 32.3568C29.6746 32.6677 30.3255 32.6677 30.6363 32.3568L33.5622 29.4211C33.5622 29.4211 33.5629 29.4198 33.5635 29.4192C33.5635 29.4192 33.5648 29.4185 33.5654 29.4179L42.5655 20.3877C42.2521 20.2427 41.9065 20.1562 41.539 20.1562Z" fill="#1EE2CF"/>
<path d="M16.2617 21.535C16.0995 21.863 16 22.2272 16 22.6172V37.3828C16 37.7728 16.0994 38.137 16.2617 38.465L24.699 30.0003L16.2617 21.535Z" fill="#1EE2CF"/>
<path d="M43.738 21.5349L35.3008 30.0003L43.738 38.4651C43.9002 38.1371 43.9998 37.7729 43.9998 37.3828V22.6172C43.9998 22.227 43.9002 21.8629 43.738 21.5349Z" fill="#1EE2CF"/>
</svg>
