<svg width="1920" height="491" viewBox="0 0 1920 491" fill="none" xmlns="http://www.w3.org/2000/svg">
<path d="M0 0H1920V491H0V0Z" fill="#292930"/>
<rect x="246" width="245" height="246" rx="122.5" fill="#27272F"/>
<path d="M246 245H368.5C436.155 245 491 299.845 491 367.5V490H368.5C300.845 490 246 435.155 246 367.5V245Z" fill="#2C2C34"/>
<rect y="246" width="246" height="245" rx="122.5" fill="#27272F"/>
<path d="M123 -5.3765e-06C190.931 -2.40714e-06 246 55.069 246 123L246 246L123 246C55.069 246 6.91293e-06 190.931 9.88229e-06 123L1.52588e-05 -1.0753e-05L123 -5.3765e-06Z" fill="#2C2C34"/>
<rect x="1675" width="245" height="246" rx="122.5" fill="#27272F"/>
<path d="M1675 245H1797.5C1865.15 245 1920 299.845 1920 367.5V490H1797.5C1729.85 490 1675 435.155 1675 367.5V245Z" fill="#2C2C34"/>
<rect x="1429" y="246" width="246" height="245" rx="122.5" fill="#27272F"/>
<path d="M1552 -5.3765e-06C1619.93 -2.40714e-06 1675 55.069 1675 123L1675 246L1552 246C1484.07 246 1429 190.931 1429 123L1429 -1.0753e-05L1552 -5.3765e-06Z" fill="#2C2C34"/>
</svg>
