<svg width="1920" height="617" viewBox="0 0 1920 617" fill="none" xmlns="http://www.w3.org/2000/svg">
<path d="M0 0H1920V617H0V0Z" fill="#423EF3"/>
<mask id="mask0_1_117" style="mask-type:alpha" maskUnits="userSpaceOnUse" x="0" y="0" width="1920" height="617">
<path d="M0 0H1920V617H0V0Z" fill="#423EF3"/>
</mask>
<g mask="url(#mask0_1_117)">
<rect x="309.128" width="307.872" height="309.128" rx="153.936" fill="#3D39F1"/>
<path d="M1618.13 153.936C1618.13 68.9195 1687.05 0 1772.06 0H1926V155.192C1926 240.209 1857.08 309.128 1772.06 309.128H1618.13V153.936Z" fill="#3D39F1"/>
<path d="M309.128 307.872H463.064C548.081 307.872 617 376.791 617 461.807V615.743H463.064C378.048 615.743 309.128 546.824 309.128 461.807V307.872Z" fill="#4743FB"/>
<path d="M1618.13 307.872H1772.06C1857.08 307.872 1926 376.791 1926 461.807V615.743H1772.06C1687.05 615.743 1618.13 546.824 1618.13 461.807V307.872Z" fill="#4743FB"/>
<rect y="309.128" width="309.128" height="307.872" rx="153.936" fill="#3D39F1"/>
<path d="M154.564 -6.75621e-06C239.928 -3.02486e-06 309.128 69.2007 309.128 154.564L309.128 309.128L154.564 309.128C69.2009 309.128 0.000111583 239.928 0.000115314 154.564L0.00012207 -1.35124e-05L154.564 -6.75621e-06Z" fill="#4743FB"/>
</g>
</svg>
