<svg width="44" height="44" viewBox="0 0 44 44" fill="none" xmlns="http://www.w3.org/2000/svg">
<circle opacity="0.1" cx="22.1097" cy="21.8909" r="21.8909" fill="white"/>
<path opacity="0.5" d="M28.2321 24.5708C28.32 24.1606 28.3786 23.7212 28.3786 23.2817C28.3786 19.9712 25.6833 17.2759 22.3727 17.2759C21.9333 17.2759 21.4938 17.3345 21.0837 17.4224C20.527 16.9829 19.8239 16.7192 19.0915 16.7192C17.2751 16.7192 15.8102 18.2134 15.8102 20.0005C15.8102 20.7622 16.0446 21.4653 16.484 22.022C16.3962 22.4321 16.3376 22.8716 16.3376 23.2817C16.3376 26.6216 19.0329 29.3169 22.3434 29.3169C22.7829 29.3169 23.2223 29.2583 23.6325 29.1704C24.1891 29.6099 24.8922 29.8442 25.6247 29.8442C27.4411 29.8442 28.9059 28.3794 28.9059 26.563C28.9352 25.8306 28.6715 25.1274 28.2321 24.5708ZM22.5485 27.2661C20.6149 27.2661 19.0036 26.4165 19.0036 25.3618C19.0036 24.8931 19.2672 24.4536 19.8825 24.4536C20.7907 24.4536 20.8786 25.772 22.4606 25.772C23.193 25.772 23.6911 25.4497 23.6911 25.0103C23.6911 24.4536 23.2223 24.3657 22.4606 24.1899C20.6442 23.7212 19.0036 23.5454 19.0036 21.6411C19.0036 19.8833 20.7321 19.2388 22.1969 19.2388C23.8083 19.2388 25.4489 19.8833 25.4489 20.8794C25.4489 21.3774 25.1266 21.8169 24.57 21.8169C23.7497 21.8169 23.7204 20.8208 22.3727 20.8208C21.611 20.8208 21.1422 21.0259 21.1422 21.4946C21.1422 22.0513 21.7575 22.1099 23.1637 22.4614C24.3649 22.7251 25.8297 23.2231 25.8297 24.7173C25.8297 26.4458 24.1598 27.2661 22.5485 27.2661Z" fill="white"/>
</svg>
