<svg width="103" height="18" viewBox="0 0 103 18" fill="none" xmlns="http://www.w3.org/2000/svg">
<path d="M8 0.25C3.71875 0.25 0.25 3.71875 0.25 8C0.25 12.2812 3.71875 15.75 8 15.75C12.2812 15.75 15.75 12.2812 15.75 8C15.75 3.71875 12.2812 0.25 8 0.25ZM8 14.25C4.53125 14.25 1.75 11.4688 1.75 8C1.75 4.5625 4.53125 1.75 8 1.75C11.4375 1.75 14.25 4.5625 14.25 8C14.25 11.4688 11.4375 14.25 8 14.25ZM9.90625 11C10.0938 11.125 10.3125 11.0938 10.4375 10.9062L11.0312 10.125C11.1562 9.9375 11.125 9.71875 10.9375 9.59375L8.875 8.0625V3.625C8.875 3.4375 8.6875 3.25 8.5 3.25H7.5C7.28125 3.25 7.125 3.4375 7.125 3.625V8.78125C7.125 8.875 7.15625 9 7.25 9.0625L9.90625 11Z" fill="#8A90A2"/>
<path d="M26.97 14.192C26.2447 14.192 25.5833 14.064 24.986 13.808C24.3993 13.5413 23.93 13.1413 23.578 12.608C23.226 12.0747 23.0393 11.408 23.018 10.608H24.698C24.7193 11.2053 24.922 11.712 25.306 12.128C25.7007 12.5333 26.2553 12.736 26.97 12.736C27.6527 12.736 28.1753 12.5493 28.538 12.176C28.9007 11.792 29.082 11.3173 29.082 10.752C29.082 10.0693 28.8367 9.56267 28.346 9.232C27.866 8.90133 27.274 8.736 26.57 8.736H25.738V7.328H26.586C27.2153 7.328 27.722 7.17867 28.106 6.88C28.5007 6.58133 28.698 6.16 28.698 5.616C28.698 5.15733 28.5433 4.784 28.234 4.496C27.9353 4.208 27.5087 4.064 26.954 4.064C26.378 4.064 25.9247 4.23467 25.594 4.576C25.2633 4.90667 25.082 5.32267 25.05 5.824H23.37C23.3913 5.17333 23.5513 4.608 23.85 4.128C24.1593 3.648 24.5807 3.27467 25.114 3.008C25.6473 2.74133 26.2607 2.608 26.954 2.608C27.7007 2.608 28.3247 2.74133 28.826 3.008C29.338 3.264 29.722 3.616 29.978 4.064C30.2447 4.50133 30.378 4.98133 30.378 5.504C30.378 6.10133 30.2127 6.624 29.882 7.072C29.5513 7.52 29.1087 7.81867 28.554 7.968C29.194 8.10667 29.722 8.42133 30.138 8.912C30.554 9.392 30.762 10.016 30.762 10.784C30.762 11.4027 30.618 11.9733 30.33 12.496C30.042 13.008 29.6153 13.4187 29.05 13.728C28.4847 14.0373 27.7913 14.192 26.97 14.192ZM40.438 14.192C39.67 14.192 38.9927 14.0107 38.406 13.648C37.8193 13.2853 37.3607 12.7893 37.03 12.16C36.6993 11.5307 36.534 10.816 36.534 10.016C36.534 9.216 36.6993 8.50667 37.03 7.888C37.3607 7.25867 37.8193 6.768 38.406 6.416C39.0033 6.05333 39.686 5.872 40.454 5.872C41.0833 5.872 41.6327 5.99467 42.102 6.24C42.582 6.48533 42.9553 6.832 43.222 7.28V2.48H44.918V14H43.398L43.222 12.768C42.966 13.1413 42.614 13.472 42.166 13.76C41.718 14.048 41.142 14.192 40.438 14.192ZM40.742 12.72C41.4673 12.72 42.0593 12.4693 42.518 11.968C42.9873 11.4667 43.222 10.8213 43.222 10.032C43.222 9.232 42.9873 8.58667 42.518 8.096C42.0593 7.59467 41.4673 7.344 40.742 7.344C40.0167 7.344 39.4193 7.59467 38.95 8.096C38.4807 8.58667 38.246 9.232 38.246 10.032C38.246 10.5547 38.3527 11.0187 38.566 11.424C38.7793 11.8293 39.0727 12.1493 39.446 12.384C39.83 12.608 40.262 12.72 40.742 12.72ZM49.7444 14.192C49.0724 14.192 48.5177 14.08 48.0804 13.856C47.643 13.632 47.3177 13.3387 47.1044 12.976C46.891 12.6027 46.7844 12.1973 46.7844 11.76C46.7844 10.992 47.083 10.384 47.6804 9.936C48.2777 9.488 49.131 9.264 50.2404 9.264H52.3204V9.12C52.3204 8.50133 52.1497 8.03733 51.8084 7.728C51.4777 7.41867 51.0457 7.264 50.5124 7.264C50.043 7.264 49.6324 7.38133 49.2804 7.616C48.939 7.84 48.731 8.176 48.6564 8.624H46.9604C47.0137 8.048 47.2057 7.55733 47.5364 7.152C47.8777 6.736 48.3044 6.42133 48.8164 6.208C49.339 5.984 49.9097 5.872 50.5284 5.872C51.6377 5.872 52.4964 6.16533 53.1044 6.752C53.7124 7.328 54.0164 8.11733 54.0164 9.12V14H52.5444L52.4004 12.64C52.1764 13.0773 51.851 13.4453 51.4244 13.744C50.9977 14.0427 50.4377 14.192 49.7444 14.192ZM50.0804 12.816C50.539 12.816 50.923 12.7093 51.2324 12.496C51.5524 12.272 51.7977 11.9787 51.9684 11.616C52.1497 11.2533 52.2617 10.8533 52.3044 10.416H50.4164C49.7444 10.416 49.2644 10.5333 48.9764 10.768C48.699 11.0027 48.5604 11.296 48.5604 11.648C48.5604 12.0107 48.6937 12.2987 48.9604 12.512C49.2377 12.7147 49.611 12.816 50.0804 12.816ZM56.6719 17.52L58.5759 13.344H58.1119L54.9759 6.064H56.8159L59.2479 11.936L61.7919 6.064H63.5839L58.4639 17.52H56.6719ZM67.7244 14.192C66.7217 14.192 65.895 13.9467 65.2444 13.456C64.5937 12.9653 64.2204 12.3147 64.1244 11.504H65.8364C65.9217 11.8667 66.1244 12.1813 66.4444 12.448C66.7644 12.704 67.1857 12.832 67.7084 12.832C68.2204 12.832 68.5937 12.7253 68.8284 12.512C69.063 12.2987 69.1804 12.0533 69.1804 11.776C69.1804 11.3707 69.015 11.0987 68.6844 10.96C68.3644 10.8107 67.9164 10.6773 67.3404 10.56C66.8924 10.464 66.4444 10.336 65.9964 10.176C65.559 10.016 65.191 9.792 64.8924 9.504C64.6044 9.20533 64.4604 8.80533 64.4604 8.304C64.4604 7.61067 64.727 7.03467 65.2604 6.576C65.7937 6.10667 66.5404 5.872 67.5004 5.872C68.3857 5.872 69.1004 6.08533 69.6444 6.512C70.199 6.93867 70.5244 7.54133 70.6204 8.32H68.9884C68.935 7.97867 68.775 7.712 68.5084 7.52C68.2524 7.328 67.9057 7.232 67.4684 7.232C67.0417 7.232 66.711 7.32267 66.4764 7.504C66.2417 7.67467 66.1244 7.89867 66.1244 8.176C66.1244 8.45333 66.2844 8.672 66.6044 8.832C66.935 8.992 67.367 9.136 67.9004 9.264C68.4337 9.38133 68.9244 9.52 69.3724 9.68C69.831 9.82933 70.199 10.0533 70.4764 10.352C70.7537 10.6507 70.8924 11.088 70.8924 11.664C70.903 12.3893 70.6204 12.992 70.0444 13.472C69.479 13.952 68.7057 14.192 67.7244 14.192ZM79.4631 14.192C78.7911 14.192 78.2365 14.08 77.7991 13.856C77.3618 13.632 77.0365 13.3387 76.8231 12.976C76.6098 12.6027 76.5031 12.1973 76.5031 11.76C76.5031 10.992 76.8018 10.384 77.3991 9.936C77.9965 9.488 78.8498 9.264 79.9591 9.264H82.0391V9.12C82.0391 8.50133 81.8685 8.03733 81.5271 7.728C81.1965 7.41867 80.7645 7.264 80.2311 7.264C79.7618 7.264 79.3511 7.38133 78.9991 7.616C78.6578 7.84 78.4498 8.176 78.3751 8.624H76.6791C76.7325 8.048 76.9245 7.55733 77.2551 7.152C77.5965 6.736 78.0231 6.42133 78.5351 6.208C79.0578 5.984 79.6285 5.872 80.2471 5.872C81.3565 5.872 82.2151 6.16533 82.8231 6.752C83.4311 7.328 83.7351 8.11733 83.7351 9.12V14H82.2631L82.1191 12.64C81.8951 13.0773 81.5698 13.4453 81.1431 13.744C80.7165 14.0427 80.1565 14.192 79.4631 14.192ZM79.7991 12.816C80.2578 12.816 80.6418 12.7093 80.9511 12.496C81.2711 12.272 81.5165 11.9787 81.6871 11.616C81.8685 11.2533 81.9805 10.8533 82.0231 10.416H80.1351C79.4631 10.416 78.9831 10.5333 78.6951 10.768C78.4178 11.0027 78.2791 11.296 78.2791 11.648C78.2791 12.0107 78.4125 12.2987 78.6791 12.512C78.9565 12.7147 79.3298 12.816 79.7991 12.816ZM88.9606 11.568C88.5446 11.568 88.1606 11.52 87.8086 11.424L87.1206 12.096C87.238 12.1707 87.382 12.2347 87.5526 12.288C87.7233 12.3413 87.9633 12.3893 88.2726 12.432C88.582 12.4747 89.0033 12.5173 89.5366 12.56C90.5926 12.656 91.3553 12.912 91.8246 13.328C92.294 13.7333 92.5286 14.2773 92.5286 14.96C92.5286 15.4293 92.4006 15.872 92.1446 16.288C91.8993 16.7147 91.51 17.056 90.9766 17.312C90.454 17.5787 89.782 17.712 88.9606 17.712C87.8513 17.712 86.95 17.4987 86.2566 17.072C85.574 16.656 85.2326 16.0213 85.2326 15.168C85.2326 14.8373 85.318 14.5067 85.4886 14.176C85.67 13.856 85.9526 13.552 86.3366 13.264C86.1126 13.168 85.9153 13.0667 85.7446 12.96C85.5846 12.8427 85.4406 12.7253 85.3126 12.608V12.224L86.6886 10.816C86.07 10.2827 85.7606 9.584 85.7606 8.72C85.7606 8.19733 85.8833 7.72267 86.1286 7.296C86.3846 6.85867 86.7526 6.512 87.2326 6.256C87.7126 6 88.2886 5.872 88.9606 5.872C89.4086 5.872 89.8246 5.936 90.2086 6.064H93.1686V7.184L91.7606 7.264C92.0166 7.70133 92.1446 8.18667 92.1446 8.72C92.1446 9.25333 92.0166 9.73333 91.7606 10.16C91.5153 10.5867 91.1526 10.928 90.6726 11.184C90.2033 11.44 89.6326 11.568 88.9606 11.568ZM88.9606 10.24C89.4513 10.24 89.846 10.112 90.1446 9.856C90.454 9.58933 90.6086 9.216 90.6086 8.736C90.6086 8.24533 90.454 7.872 90.1446 7.616C89.846 7.36 89.4513 7.232 88.9606 7.232C88.4593 7.232 88.054 7.36 87.7446 7.616C87.446 7.872 87.2966 8.24533 87.2966 8.736C87.2966 9.216 87.446 9.58933 87.7446 9.856C88.054 10.112 88.4593 10.24 88.9606 10.24ZM86.8326 15.008C86.8326 15.4667 87.0353 15.808 87.4406 16.032C87.846 16.2667 88.3526 16.384 88.9606 16.384C89.5473 16.384 90.022 16.256 90.3846 16C90.7473 15.7547 90.9286 15.424 90.9286 15.008C90.9286 14.6987 90.806 14.432 90.5606 14.208C90.3153 13.9947 89.8513 13.8613 89.1686 13.808C88.6566 13.776 88.2033 13.728 87.8086 13.664C87.4353 13.8667 87.1793 14.0853 87.0406 14.32C86.902 14.5547 86.8326 14.784 86.8326 15.008ZM98.0809 14.192C97.3235 14.192 96.6409 14.0213 96.0329 13.68C95.4355 13.328 94.9609 12.8427 94.6089 12.224C94.2569 11.5947 94.0809 10.864 94.0809 10.032C94.0809 9.2 94.2569 8.47467 94.6089 7.856C94.9715 7.22667 95.4569 6.74133 96.0649 6.4C96.6729 6.048 97.3502 5.872 98.0969 5.872C98.8542 5.872 99.5315 6.048 100.129 6.4C100.737 6.74133 101.217 7.22667 101.569 7.856C101.932 8.47467 102.113 9.2 102.113 10.032C102.113 10.864 101.932 11.5947 101.569 12.224C101.217 12.8427 100.737 13.328 100.129 13.68C99.5209 14.0213 98.8382 14.192 98.0809 14.192ZM98.0809 12.736C98.4862 12.736 98.8595 12.6347 99.2009 12.432C99.5529 12.2293 99.8355 11.9307 100.049 11.536C100.262 11.1307 100.369 10.6293 100.369 10.032C100.369 9.43467 100.262 8.93867 100.049 8.544C99.8462 8.13867 99.5689 7.83467 99.2169 7.632C98.8755 7.42933 98.5022 7.328 98.0969 7.328C97.6915 7.328 97.3129 7.42933 96.9609 7.632C96.6195 7.83467 96.3422 8.13867 96.1289 8.544C95.9155 8.93867 95.8089 9.43467 95.8089 10.032C95.8089 10.6293 95.9155 11.1307 96.1289 11.536C96.3422 11.9307 96.6195 12.2293 96.9609 12.432C97.3022 12.6347 97.6755 12.736 98.0809 12.736Z" fill="#292930"/>
</svg>
