<svg width="183" height="18" viewBox="0 0 183 18" fill="none" xmlns="http://www.w3.org/2000/svg">
<path d="M8 0.25C3.71875 0.25 0.25 3.71875 0.25 8C0.25 12.2812 3.71875 15.75 8 15.75C12.2812 15.75 15.75 12.2812 15.75 8C15.75 3.71875 12.2812 0.25 8 0.25ZM8 14.25C4.53125 14.25 1.75 11.4688 1.75 8C1.75 4.5625 4.53125 1.75 8 1.75C11.4375 1.75 14.25 4.5625 14.25 8C14.25 11.4688 11.4375 14.25 8 14.25ZM9.90625 11C10.0938 11.125 10.3125 11.0938 10.4375 10.9062L11.0312 10.125C11.1562 9.9375 11.125 9.71875 10.9375 9.59375L8.875 8.0625V3.625C8.875 3.4375 8.6875 3.25 8.5 3.25H7.5C7.28125 3.25 7.125 3.4375 7.125 3.625V8.78125C7.125 8.875 7.15625 9 7.25 9.0625L9.90625 11ZM23.338 14V2.8H27.482C28.378 2.8 29.1193 2.94933 29.706 3.248C30.2927 3.54667 30.73 3.95733 31.018 4.48C31.306 5.00267 31.45 5.58933 31.45 6.24C31.45 6.85867 31.3113 7.42933 31.034 7.952C30.7567 8.464 30.3247 8.88 29.738 9.2C29.1513 9.50933 28.3993 9.664 27.482 9.664H25.386V14H23.338ZM25.386 8H27.354C28.0687 8 28.5807 7.84533 28.89 7.536C29.21 7.216 29.37 6.784 29.37 6.24C29.37 5.68533 29.21 5.25333 28.89 4.944C28.5807 4.624 28.0687 4.464 27.354 4.464H25.386V8ZM36.7528 14.192C35.9954 14.192 35.3128 14.0213 34.7048 13.68C34.1074 13.328 33.6328 12.8427 33.2808 12.224C32.9288 11.5947 32.7528 10.864 32.7528 10.032C32.7528 9.2 32.9288 8.47467 33.2808 7.856C33.6434 7.22667 34.1288 6.74133 34.7368 6.4C35.3448 6.048 36.0221 5.872 36.7688 5.872C37.5261 5.872 38.2034 6.048 38.8008 6.4C39.4088 6.74133 39.8888 7.22667 40.2408 7.856C40.6034 8.47467 40.7847 9.2 40.7847 10.032C40.7847 10.864 40.6034 11.5947 40.2408 12.224C39.8888 12.8427 39.4088 13.328 38.8008 13.68C38.1928 14.0213 37.5101 14.192 36.7528 14.192ZM36.7528 12.736C37.1581 12.736 37.5314 12.6347 37.8728 12.432C38.2248 12.2293 38.5074 11.9307 38.7208 11.536C38.9341 11.1307 39.0408 10.6293 39.0408 10.032C39.0408 9.43467 38.9341 8.93867 38.7208 8.544C38.5181 8.13867 38.2408 7.83467 37.8888 7.632C37.5474 7.42933 37.1741 7.328 36.7688 7.328C36.3634 7.328 35.9848 7.42933 35.6328 7.632C35.2914 7.83467 35.0141 8.13867 34.8008 8.544C34.5874 8.93867 34.4808 9.43467 34.4808 10.032C34.4808 10.6293 34.5874 11.1307 34.8008 11.536C35.0141 11.9307 35.2914 12.2293 35.6328 12.432C35.9741 12.6347 36.3474 12.736 36.7528 12.736ZM45.7869 14.192C44.7842 14.192 43.9575 13.9467 43.3069 13.456C42.6562 12.9653 42.2829 12.3147 42.1869 11.504H43.8989C43.9842 11.8667 44.1869 12.1813 44.5069 12.448C44.8269 12.704 45.2482 12.832 45.7709 12.832C46.2829 12.832 46.6562 12.7253 46.8909 12.512C47.1255 12.2987 47.2429 12.0533 47.2429 11.776C47.2429 11.3707 47.0775 11.0987 46.7469 10.96C46.4269 10.8107 45.9789 10.6773 45.4029 10.56C44.9549 10.464 44.5069 10.336 44.0589 10.176C43.6215 10.016 43.2535 9.792 42.9549 9.504C42.6669 9.20533 42.5229 8.80533 42.5229 8.304C42.5229 7.61067 42.7895 7.03467 43.3229 6.576C43.8562 6.10667 44.6029 5.872 45.5629 5.872C46.4482 5.872 47.1629 6.08533 47.7069 6.512C48.2615 6.93867 48.5869 7.54133 48.6829 8.32H47.0509C46.9975 7.97867 46.8375 7.712 46.5709 7.52C46.3149 7.328 45.9682 7.232 45.5309 7.232C45.1042 7.232 44.7735 7.32267 44.5389 7.504C44.3042 7.67467 44.1869 7.89867 44.1869 8.176C44.1869 8.45333 44.3469 8.672 44.6669 8.832C44.9975 8.992 45.4295 9.136 45.9629 9.264C46.4962 9.38133 46.9869 9.52 47.4349 9.68C47.8935 9.82933 48.2615 10.0533 48.5389 10.352C48.8162 10.6507 48.9549 11.088 48.9549 11.664C48.9655 12.3893 48.6829 12.992 48.1069 13.472C47.5415 13.952 46.7682 14.192 45.7869 14.192ZM53.8375 14C53.0588 14 52.4402 13.8133 51.9815 13.44C51.5228 13.056 51.2935 12.3787 51.2935 11.408V7.488H49.9335V6.064H51.2935L51.5015 4.048H52.9895V6.064H55.2295V7.488H52.9895V11.408C52.9895 11.8453 53.0802 12.1493 53.2615 12.32C53.4535 12.48 53.7788 12.56 54.2375 12.56H55.1495V14H53.8375ZM60.4871 14.192C59.7085 14.192 59.0151 14.0213 58.4071 13.68C57.8098 13.328 57.3405 12.8427 56.9991 12.224C56.6578 11.6053 56.4871 10.8853 56.4871 10.064C56.4871 9.232 56.6525 8.50133 56.9831 7.872C57.3245 7.24267 57.7938 6.752 58.3911 6.4C58.9991 6.048 59.7031 5.872 60.5031 5.872C61.2818 5.872 61.9591 6.048 62.5351 6.4C63.1111 6.74133 63.5591 7.2 63.8791 7.776C64.1991 8.352 64.3591 8.98667 64.3591 9.68C64.3591 9.78667 64.3538 9.904 64.3431 10.032C64.3431 10.1493 64.3378 10.2827 64.3271 10.432H58.1511C58.2045 11.2 58.4551 11.7867 58.9031 12.192C59.3618 12.5867 59.8898 12.784 60.4871 12.784C60.9671 12.784 61.3671 12.6773 61.6871 12.464C62.0178 12.24 62.2631 11.9413 62.4231 11.568H64.1191C63.9058 12.3147 63.4791 12.9387 62.8391 13.44C62.2098 13.9413 61.4258 14.192 60.4871 14.192ZM60.4871 7.264C59.9218 7.264 59.4205 7.43467 58.9831 7.776C58.5458 8.10667 58.2791 8.608 58.1831 9.28H62.6631C62.6311 8.66133 62.4125 8.17067 62.0071 7.808C61.6018 7.44533 61.0951 7.264 60.4871 7.264ZM69.7349 14.192C68.9669 14.192 68.2895 14.0107 67.7029 13.648C67.1162 13.2853 66.6575 12.7893 66.3269 12.16C65.9962 11.5307 65.8309 10.816 65.8309 10.016C65.8309 9.216 65.9962 8.50667 66.3269 7.888C66.6575 7.25867 67.1162 6.768 67.7029 6.416C68.3002 6.05333 68.9829 5.872 69.7509 5.872C70.3802 5.872 70.9295 5.99467 71.3989 6.24C71.8789 6.48533 72.2522 6.832 72.5189 7.28V2.48H74.2149V14H72.6949L72.5189 12.768C72.2629 13.1413 71.9109 13.472 71.4629 13.76C71.0149 14.048 70.4389 14.192 69.7349 14.192ZM70.0389 12.72C70.7642 12.72 71.3562 12.4693 71.8149 11.968C72.2842 11.4667 72.5189 10.8213 72.5189 10.032C72.5189 9.232 72.2842 8.58667 71.8149 8.096C71.3562 7.59467 70.7642 7.344 70.0389 7.344C69.3135 7.344 68.7162 7.59467 68.2469 8.096C67.7775 8.58667 67.5429 9.232 67.5429 10.032C67.5429 10.5547 67.6495 11.0187 67.8629 11.424C68.0762 11.8293 68.3695 12.1493 68.7429 12.384C69.1269 12.608 69.5589 12.72 70.0389 12.72ZM84.0965 14.192C83.3392 14.192 82.6565 14.0213 82.0485 13.68C81.4512 13.328 80.9765 12.8427 80.6245 12.224C80.2725 11.5947 80.0965 10.864 80.0965 10.032C80.0965 9.2 80.2725 8.47467 80.6245 7.856C80.9872 7.22667 81.4725 6.74133 82.0805 6.4C82.6885 6.048 83.3658 5.872 84.1125 5.872C84.8698 5.872 85.5472 6.048 86.1445 6.4C86.7525 6.74133 87.2325 7.22667 87.5845 7.856C87.9472 8.47467 88.1285 9.2 88.1285 10.032C88.1285 10.864 87.9472 11.5947 87.5845 12.224C87.2325 12.8427 86.7525 13.328 86.1445 13.68C85.5365 14.0213 84.8538 14.192 84.0965 14.192ZM84.0965 12.736C84.5018 12.736 84.8752 12.6347 85.2165 12.432C85.5685 12.2293 85.8512 11.9307 86.0645 11.536C86.2778 11.1307 86.3845 10.6293 86.3845 10.032C86.3845 9.43467 86.2778 8.93867 86.0645 8.544C85.8618 8.13867 85.5845 7.83467 85.2325 7.632C84.8912 7.42933 84.5178 7.328 84.1125 7.328C83.7072 7.328 83.3285 7.42933 82.9765 7.632C82.6352 7.83467 82.3578 8.13867 82.1445 8.544C81.9312 8.93867 81.8245 9.43467 81.8245 10.032C81.8245 10.6293 81.9312 11.1307 82.1445 11.536C82.3578 11.9307 82.6352 12.2293 82.9765 12.432C83.3178 12.6347 83.6912 12.736 84.0965 12.736ZM89.9626 14V6.064H91.4666L91.5946 7.456C91.84 6.96533 92.1973 6.58133 92.6666 6.304C93.1466 6.016 93.696 5.872 94.3146 5.872C95.2746 5.872 96.0266 6.17067 96.5706 6.768C97.1253 7.36533 97.4026 8.256 97.4026 9.44V14H95.7226V9.616C95.7226 8.08 95.0933 7.312 93.8346 7.312C93.2053 7.312 92.6826 7.536 92.2666 7.984C91.8613 8.432 91.6586 9.072 91.6586 9.904V14H89.9626Z" fill="#8A90A2"/>
<path d="M107.079 14.192C106.354 14.192 105.693 14.064 105.095 13.808C104.509 13.5413 104.039 13.1413 103.687 12.608C103.335 12.0747 103.149 11.408 103.127 10.608H104.807C104.829 11.2053 105.031 11.712 105.415 12.128C105.81 12.5333 106.365 12.736 107.079 12.736C107.762 12.736 108.285 12.5493 108.647 12.176C109.01 11.792 109.191 11.3173 109.191 10.752C109.191 10.0693 108.946 9.56267 108.455 9.232C107.975 8.90133 107.383 8.736 106.679 8.736H105.847V7.328H106.695C107.325 7.328 107.831 7.17867 108.215 6.88C108.61 6.58133 108.807 6.16 108.807 5.616C108.807 5.15733 108.653 4.784 108.343 4.496C108.045 4.208 107.618 4.064 107.063 4.064C106.487 4.064 106.034 4.23467 105.703 4.576C105.373 4.90667 105.191 5.32267 105.159 5.824H103.479C103.501 5.17333 103.661 4.608 103.959 4.128C104.269 3.648 104.69 3.27467 105.223 3.008C105.757 2.74133 106.37 2.608 107.063 2.608C107.81 2.608 108.434 2.74133 108.935 3.008C109.447 3.264 109.831 3.616 110.087 4.064C110.354 4.50133 110.487 4.98133 110.487 5.504C110.487 6.10133 110.322 6.624 109.991 7.072C109.661 7.52 109.218 7.81867 108.663 7.968C109.303 8.10667 109.831 8.42133 110.247 8.912C110.663 9.392 110.871 10.016 110.871 10.784C110.871 11.4027 110.727 11.9733 110.439 12.496C110.151 13.008 109.725 13.4187 109.159 13.728C108.594 14.0373 107.901 14.192 107.079 14.192ZM120.547 14.192C119.779 14.192 119.102 14.0107 118.515 13.648C117.929 13.2853 117.47 12.7893 117.139 12.16C116.809 11.5307 116.643 10.816 116.643 10.016C116.643 9.216 116.809 8.50667 117.139 7.888C117.47 7.25867 117.929 6.768 118.515 6.416C119.113 6.05333 119.795 5.872 120.563 5.872C121.193 5.872 121.742 5.99467 122.211 6.24C122.691 6.48533 123.065 6.832 123.331 7.28V2.48H125.027V14H123.507L123.331 12.768C123.075 13.1413 122.723 13.472 122.275 13.76C121.827 14.048 121.251 14.192 120.547 14.192ZM120.851 12.72C121.577 12.72 122.169 12.4693 122.627 11.968C123.097 11.4667 123.331 10.8213 123.331 10.032C123.331 9.232 123.097 8.58667 122.627 8.096C122.169 7.59467 121.577 7.344 120.851 7.344C120.126 7.344 119.529 7.59467 119.059 8.096C118.59 8.58667 118.355 9.232 118.355 10.032C118.355 10.5547 118.462 11.0187 118.675 11.424C118.889 11.8293 119.182 12.1493 119.555 12.384C119.939 12.608 120.371 12.72 120.851 12.72ZM129.854 14.192C129.182 14.192 128.627 14.08 128.19 13.856C127.752 13.632 127.427 13.3387 127.214 12.976C127 12.6027 126.894 12.1973 126.894 11.76C126.894 10.992 127.192 10.384 127.79 9.936C128.387 9.488 129.24 9.264 130.35 9.264H132.43V9.12C132.43 8.50133 132.259 8.03733 131.918 7.728C131.587 7.41867 131.155 7.264 130.622 7.264C130.152 7.264 129.742 7.38133 129.39 7.616C129.048 7.84 128.84 8.176 128.766 8.624H127.07C127.123 8.048 127.315 7.55733 127.646 7.152C127.987 6.736 128.414 6.42133 128.926 6.208C129.448 5.984 130.019 5.872 130.638 5.872C131.747 5.872 132.606 6.16533 133.214 6.752C133.822 7.328 134.126 8.11733 134.126 9.12V14H132.654L132.51 12.64C132.286 13.0773 131.96 13.4453 131.534 13.744C131.107 14.0427 130.547 14.192 129.854 14.192ZM130.19 12.816C130.648 12.816 131.032 12.7093 131.342 12.496C131.662 12.272 131.907 11.9787 132.078 11.616C132.259 11.2533 132.371 10.8533 132.414 10.416H130.526C129.854 10.416 129.374 10.5333 129.086 10.768C128.808 11.0027 128.67 11.296 128.67 11.648C128.67 12.0107 128.803 12.2987 129.07 12.512C129.347 12.7147 129.72 12.816 130.19 12.816ZM136.781 17.52L138.685 13.344H138.221L135.085 6.064H136.925L139.357 11.936L141.901 6.064H143.693L138.573 17.52H136.781ZM147.834 14.192C146.831 14.192 146.004 13.9467 145.354 13.456C144.703 12.9653 144.33 12.3147 144.234 11.504H145.946C146.031 11.8667 146.234 12.1813 146.554 12.448C146.874 12.704 147.295 12.832 147.818 12.832C148.33 12.832 148.703 12.7253 148.938 12.512C149.172 12.2987 149.29 12.0533 149.29 11.776C149.29 11.3707 149.124 11.0987 148.794 10.96C148.474 10.8107 148.026 10.6773 147.45 10.56C147.002 10.464 146.554 10.336 146.106 10.176C145.668 10.016 145.3 9.792 145.002 9.504C144.714 9.20533 144.57 8.80533 144.57 8.304C144.57 7.61067 144.836 7.03467 145.37 6.576C145.903 6.10667 146.65 5.872 147.61 5.872C148.495 5.872 149.21 6.08533 149.754 6.512C150.308 6.93867 150.634 7.54133 150.73 8.32H149.098C149.044 7.97867 148.884 7.712 148.618 7.52C148.362 7.328 148.015 7.232 147.578 7.232C147.151 7.232 146.82 7.32267 146.586 7.504C146.351 7.67467 146.234 7.89867 146.234 8.176C146.234 8.45333 146.394 8.672 146.714 8.832C147.044 8.992 147.476 9.136 148.01 9.264C148.543 9.38133 149.034 9.52 149.482 9.68C149.94 9.82933 150.308 10.0533 150.586 10.352C150.863 10.6507 151.002 11.088 151.002 11.664C151.012 12.3893 150.73 12.992 150.154 13.472C149.588 13.952 148.815 14.192 147.834 14.192ZM159.573 14.192C158.901 14.192 158.346 14.08 157.909 13.856C157.471 13.632 157.146 13.3387 156.933 12.976C156.719 12.6027 156.613 12.1973 156.613 11.76C156.613 10.992 156.911 10.384 157.509 9.936C158.106 9.488 158.959 9.264 160.069 9.264H162.149V9.12C162.149 8.50133 161.978 8.03733 161.637 7.728C161.306 7.41867 160.874 7.264 160.341 7.264C159.871 7.264 159.461 7.38133 159.109 7.616C158.767 7.84 158.559 8.176 158.485 8.624H156.789C156.842 8.048 157.034 7.55733 157.365 7.152C157.706 6.736 158.133 6.42133 158.645 6.208C159.167 5.984 159.738 5.872 160.357 5.872C161.466 5.872 162.325 6.16533 162.933 6.752C163.541 7.328 163.845 8.11733 163.845 9.12V14H162.373L162.229 12.64C162.005 13.0773 161.679 13.4453 161.253 13.744C160.826 14.0427 160.266 14.192 159.573 14.192ZM159.909 12.816C160.367 12.816 160.751 12.7093 161.061 12.496C161.381 12.272 161.626 11.9787 161.797 11.616C161.978 11.2533 162.09 10.8533 162.133 10.416H160.245C159.573 10.416 159.093 10.5333 158.805 10.768C158.527 11.0027 158.389 11.296 158.389 11.648C158.389 12.0107 158.522 12.2987 158.789 12.512C159.066 12.7147 159.439 12.816 159.909 12.816ZM169.07 11.568C168.654 11.568 168.27 11.52 167.918 11.424L167.23 12.096C167.347 12.1707 167.491 12.2347 167.662 12.288C167.833 12.3413 168.073 12.3893 168.382 12.432C168.691 12.4747 169.113 12.5173 169.646 12.56C170.702 12.656 171.465 12.912 171.934 13.328C172.403 13.7333 172.638 14.2773 172.638 14.96C172.638 15.4293 172.51 15.872 172.254 16.288C172.009 16.7147 171.619 17.056 171.086 17.312C170.563 17.5787 169.891 17.712 169.07 17.712C167.961 17.712 167.059 17.4987 166.366 17.072C165.683 16.656 165.342 16.0213 165.342 15.168C165.342 14.8373 165.427 14.5067 165.598 14.176C165.779 13.856 166.062 13.552 166.446 13.264C166.222 13.168 166.025 13.0667 165.854 12.96C165.694 12.8427 165.55 12.7253 165.422 12.608V12.224L166.798 10.816C166.179 10.2827 165.87 9.584 165.87 8.72C165.87 8.19733 165.993 7.72267 166.238 7.296C166.494 6.85867 166.862 6.512 167.342 6.256C167.822 6 168.398 5.872 169.07 5.872C169.518 5.872 169.934 5.936 170.318 6.064H173.278V7.184L171.87 7.264C172.126 7.70133 172.254 8.18667 172.254 8.72C172.254 9.25333 172.126 9.73333 171.87 10.16C171.625 10.5867 171.262 10.928 170.782 11.184C170.313 11.44 169.742 11.568 169.07 11.568ZM169.07 10.24C169.561 10.24 169.955 10.112 170.254 9.856C170.563 9.58933 170.718 9.216 170.718 8.736C170.718 8.24533 170.563 7.872 170.254 7.616C169.955 7.36 169.561 7.232 169.07 7.232C168.569 7.232 168.163 7.36 167.854 7.616C167.555 7.872 167.406 8.24533 167.406 8.736C167.406 9.216 167.555 9.58933 167.854 9.856C168.163 10.112 168.569 10.24 169.07 10.24ZM166.942 15.008C166.942 15.4667 167.145 15.808 167.55 16.032C167.955 16.2667 168.462 16.384 169.07 16.384C169.657 16.384 170.131 16.256 170.494 16C170.857 15.7547 171.038 15.424 171.038 15.008C171.038 14.6987 170.915 14.432 170.67 14.208C170.425 13.9947 169.961 13.8613 169.278 13.808C168.766 13.776 168.313 13.728 167.918 13.664C167.545 13.8667 167.289 14.0853 167.15 14.32C167.011 14.5547 166.942 14.784 166.942 15.008ZM178.19 14.192C177.433 14.192 176.75 14.0213 176.142 13.68C175.545 13.328 175.07 12.8427 174.718 12.224C174.366 11.5947 174.19 10.864 174.19 10.032C174.19 9.2 174.366 8.47467 174.718 7.856C175.081 7.22667 175.566 6.74133 176.174 6.4C176.782 6.048 177.46 5.872 178.206 5.872C178.964 5.872 179.641 6.048 180.238 6.4C180.846 6.74133 181.326 7.22667 181.678 7.856C182.041 8.47467 182.222 9.2 182.222 10.032C182.222 10.864 182.041 11.5947 181.678 12.224C181.326 12.8427 180.846 13.328 180.238 13.68C179.63 14.0213 178.948 14.192 178.19 14.192ZM178.19 12.736C178.596 12.736 178.969 12.6347 179.31 12.432C179.662 12.2293 179.945 11.9307 180.158 11.536C180.372 11.1307 180.478 10.6293 180.478 10.032C180.478 9.43467 180.372 8.93867 180.158 8.544C179.956 8.13867 179.678 7.83467 179.326 7.632C178.985 7.42933 178.612 7.328 178.206 7.328C177.801 7.328 177.422 7.42933 177.07 7.632C176.729 7.83467 176.452 8.13867 176.238 8.544C176.025 8.93867 175.918 9.43467 175.918 10.032C175.918 10.6293 176.025 11.1307 176.238 11.536C176.452 11.9307 176.729 12.2293 177.07 12.432C177.412 12.6347 177.785 12.736 178.19 12.736Z" fill="#292930"/>
</svg>
