<svg width="45" height="44" viewBox="0 0 45 44" fill="none" xmlns="http://www.w3.org/2000/svg">
<circle opacity="0.1" cx="22.2972" cy="21.8909" r="21.8909" fill="white"/>
<path opacity="0.5" d="M28.9061 19.9023C29.492 19.4629 30.0194 18.9355 30.4295 18.3203C29.9022 18.5547 29.2869 18.7305 28.6717 18.7891C29.3162 18.4082 29.785 17.8223 30.0194 17.0898C29.4334 17.4414 28.7596 17.7051 28.0858 17.8516C27.4998 17.2363 26.7088 16.8848 25.8299 16.8848C24.1307 16.8848 22.7537 18.2617 22.7537 19.9609C22.7537 20.1953 22.783 20.4297 22.8416 20.6641C20.2928 20.5176 18.0076 19.2871 16.4842 17.4414C16.2205 17.8809 16.074 18.4082 16.074 18.9941C16.074 20.0488 16.6014 20.9863 17.451 21.543C16.9529 21.5137 16.4549 21.3965 16.0447 21.1621V21.1914C16.0447 22.6855 17.0994 23.916 18.5057 24.209C18.2713 24.2676 17.9783 24.3262 17.7147 24.3262C17.5096 24.3262 17.3338 24.2969 17.1287 24.2676C17.5096 25.498 18.6522 26.377 19.9998 26.4062C18.9451 27.2266 17.6268 27.7246 16.1912 27.7246C15.9276 27.7246 15.6932 27.6953 15.4588 27.666C16.8065 28.5449 18.4178 29.043 20.1756 29.043C25.8299 29.043 28.9061 24.3848 28.9061 20.3125C28.9061 20.166 28.9061 20.0488 28.9061 19.9023Z" fill="white"/>
</svg>
