<svg width="44" height="44" viewBox="0 0 44 44" fill="none" xmlns="http://www.w3.org/2000/svg">
<circle cx="21.8909" cy="21.8909" r="21.8909" fill="#423EF3"/>
<path d="M29.8883 19.1113C29.7126 18.4082 29.1559 17.8516 28.4821 17.6758C27.2223 17.3242 22.2419 17.3242 22.2419 17.3242C22.2419 17.3242 17.2321 17.3242 15.9723 17.6758C15.2985 17.8516 14.7419 18.4082 14.5661 19.1113C14.2145 20.3418 14.2145 22.9785 14.2145 22.9785C14.2145 22.9785 14.2145 25.5859 14.5661 26.8457C14.7419 27.5488 15.2985 28.0762 15.9723 28.252C17.2321 28.5742 22.2419 28.5742 22.2419 28.5742C22.2419 28.5742 27.2223 28.5742 28.4821 28.252C29.1559 28.0762 29.7126 27.5488 29.8883 26.8457C30.2399 25.5859 30.2399 22.9785 30.2399 22.9785C30.2399 22.9785 30.2399 20.3418 29.8883 19.1113ZM20.6012 25.3516V20.6055L24.7614 22.9785L20.6012 25.3516Z" fill="white"/>
</svg>
